<svg id="Слой_1" data-name="Слой 1" xmlns="http://www.w3.org/2000/svg" viewBox="0 0 80 20"><defs><style>.cls-1{fill:#28689b;}.cls-2{fill:#fff;}</style></defs><title>Векторный смарт-объект6</title><rect class="cls-1" width="80" height="20" rx="3" ry="3"/><path class="cls-2" d="M26.76,5.15H19.68a1.31,1.31,0,0,0-1.31,1.31v7.08a1.31,1.31,0,0,0,1.31,1.31h3.49V11.38h-.9a.21.21,0,0,1-.21-.21V10.05a.21.21,0,0,1,.21-.21h.9V8.76a1.76,1.76,0,0,1,1.88-1.93H26a.21.21,0,0,1,.21.21V8a.21.21,0,0,1-.21.21h-.56c-.61,0-.73.29-.73.71v.93H26a.21.21,0,0,1,.21.24L26.1,11.2a.21.21,0,0,1-.21.19h-1.2v3.46h2.08a1.31,1.31,0,0,0,1.31-1.31V6.46a1.31,1.31,0,0,0-1.31-1.31Zm0,0"/><path class="cls-2" d="M41.91,8.18a2.73,2.73,0,0,0-1.34.32A2.53,2.53,0,0,0,40,9V5.77H38.88V14.3H40V10.18a2.15,2.15,0,0,1,.68-.81A1.81,1.81,0,0,1,41.73,9a1.45,1.45,0,0,1,1.06.34,1.71,1.71,0,0,1,.35,1.23V14.3h1.07V10.63a2.54,2.54,0,0,0-.59-1.85A2.34,2.34,0,0,0,41.91,8.18Z"/><path class="cls-2" d="M51.19,13.44a4.51,4.51,0,0,1,0-.57V10a1.79,1.79,0,0,0-.71-1.52A3.07,3.07,0,0,0,48.59,8a3.17,3.17,0,0,0-1.91.54,1.61,1.61,0,0,0-.76,1.31V10H47V9.86a.82.82,0,0,1,.42-.69,2,2,0,0,1,1.16-.3,1.85,1.85,0,0,1,1.15.31,1,1,0,0,1,.38.85v.55H48.82a4.24,4.24,0,0,0-2.21.5,1.6,1.6,0,0,0-.84,1.42,1.65,1.65,0,0,0,.57,1.32,2.44,2.44,0,0,0,1.61.48A3.25,3.25,0,0,0,49.38,14a3,3,0,0,0,.73-.49v.05c0,.14.06.31.11.51l0,.13h1.13L51.31,14A2.89,2.89,0,0,1,51.19,13.44Zm-2.38-2.05h1.28v1a1.84,1.84,0,0,1-.77.73,2.7,2.7,0,0,1-1.29.29,1.39,1.39,0,0,1-.9-.25.78.78,0,0,1-.3-.65.91.91,0,0,1,.5-.79A2.76,2.76,0,0,1,48.81,11.39Z"/><path class="cls-2" d="M55.57,8.13l-.3,0A2.3,2.3,0,0,0,54,8.42a2.16,2.16,0,0,0-.53.46l-.06-.67h-1V14.3h1.07V10.18a1.66,1.66,0,0,1,.56-.83,1.58,1.58,0,0,1,1-.3l.7,0L56,8.21l-.15,0Z"/><path class="cls-2" d="M61.63,10.62a2.56,2.56,0,0,0-.72-1.91,2.77,2.77,0,0,0-2-.71,2.84,2.84,0,0,0-2.09.85A3,3,0,0,0,56,11v.29a2.88,2.88,0,0,0,.85,2.15A3.08,3.08,0,0,0,59,14.3a4,4,0,0,0,1.37-.21,2.88,2.88,0,0,0,1-.57l.1-.09-.49-.7-.15.12a2.56,2.56,0,0,1-.8.45,3.08,3.08,0,0,1-1,.14,1.87,1.87,0,0,1-1.46-.59A2.18,2.18,0,0,1,57,11.33h4.6ZM58.89,8.87a1.63,1.63,0,0,1,1.23.44,1.57,1.57,0,0,1,.44,1.16H57.08a2.15,2.15,0,0,1,.58-1.12A1.65,1.65,0,0,1,58.89,8.87Z"/><path class="cls-2" d="M36.91,10.45a5.06,5.06,0,0,0-2-1,4.44,4.44,0,0,1-1.68-.74,1.21,1.21,0,0,1-.43-1,1.29,1.29,0,0,1,.47-1,2.11,2.11,0,0,1,1.42-.43,2,2,0,0,1,1.45.51,1.75,1.75,0,0,1,.51,1.31V8.3h1V8.12a2.72,2.72,0,0,0-.81-2,2.9,2.9,0,0,0-2.12-.79A3.11,3.11,0,0,0,32.6,6a2.22,2.22,0,0,0-.81,1.79,2.13,2.13,0,0,0,.73,1.71,5.4,5.4,0,0,0,2.06,1,4.31,4.31,0,0,1,1.66.76,1.33,1.33,0,0,1,.42,1,1.27,1.27,0,0,1-.51,1.06,2.33,2.33,0,0,1-1.46.42,2.68,2.68,0,0,1-1.57-.45,1.54,1.54,0,0,1-.61-1.37v-.18h-1v.18a2.47,2.47,0,0,0,1,2.11,3.63,3.63,0,0,0,2.2.68,3.33,3.33,0,0,0,2.1-.64,2.2,2.2,0,0,0,.84-1.83A2.27,2.27,0,0,0,36.91,10.45Z"/></svg>