<svg id="Слой_1" data-name="Слой 1" xmlns="http://www.w3.org/2000/svg" viewBox="0 0 80 20"><defs><style>.cls-1{fill:#356986;}.cls-2{fill:#fff;}</style></defs><title>инста</title><rect class="cls-1" width="80" height="20" rx="3" ry="3"/><path class="cls-2" d="M21.39,3.23H11.09a1.6,1.6,0,0,0-1.61,1.6v10.3a1.6,1.6,0,0,0,1.61,1.6h10.3A1.6,1.6,0,0,0,23,15.14V4.83A1.6,1.6,0,0,0,21.39,3.23ZM18.87,5.15a.38.38,0,0,1,.38-.38h1.83a.38.38,0,0,1,.38.38V7a.38.38,0,0,1-.38.38H19.25A.38.38,0,0,1,18.87,7ZM16.26,7.41A2.59,2.59,0,1,1,13.66,10,2.59,2.59,0,0,1,16.26,7.41Zm5.23,7.38a.38.38,0,0,1-.38.38h-9.7a.38.38,0,0,1-.38-.38V8.92H12.3a4.11,4.11,0,1,0,7.93,0h1.26Z"/><path class="cls-2" d="M28.25,12.92H27.18V6.53h1.07Z"/><path class="cls-2" d="M30.53,8.17l.06.66h0a1.68,1.68,0,0,1,.58-.56,1.58,1.58,0,0,1,.79-.2,1.5,1.5,0,0,1,1.17.44,2,2,0,0,1,.41,1.41v3H32.48v-3a1.08,1.08,0,0,0-.22-.77A.92.92,0,0,0,31.59,9a1.12,1.12,0,0,0-.56.14,1.18,1.18,0,0,0-.4.38v3.45H29.56V8.17Z"/><path class="cls-2" d="M37.33,11.63a.49.49,0,0,0-.2-.41,2.15,2.15,0,0,0-.79-.29,3.33,3.33,0,0,1-1.3-.51,1.07,1.07,0,0,1-.43-.91,1.29,1.29,0,0,1,.5-1,2,2,0,0,1,1.34-.42,2.11,2.11,0,0,1,1.39.42,1.36,1.36,0,0,1,.51,1.09H37.28a.67.67,0,0,0-.22-.51.86.86,0,0,0-.62-.21.88.88,0,0,0-.59.17.54.54,0,0,0-.2.43.47.47,0,0,0,.18.4,2.11,2.11,0,0,0,.78.26,3.34,3.34,0,0,1,1.34.52,1.09,1.09,0,0,1,.42.92,1.24,1.24,0,0,1-.52,1,2.28,2.28,0,0,1-1.4.39A2.14,2.14,0,0,1,35,12.54a1.45,1.45,0,0,1-.53-1.12h1a.71.71,0,0,0,.29.6,1.23,1.23,0,0,0,.69.18,1.11,1.11,0,0,0,.64-.15A.49.49,0,0,0,37.33,11.63Z"/><path class="cls-2" d="M40.61,7V8.17h.86V9h-.86v2.63a.63.63,0,0,0,.11.42.38.38,0,0,0,.3.12l.21,0,.18,0,.11.78a1.55,1.55,0,0,1-.35.11,2,2,0,0,1-.42,0,1.16,1.16,0,0,1-.89-.34,1.56,1.56,0,0,1-.31-1.09V9h-.66V8.17h.66V7Z"/><path class="cls-2" d="M45.14,12.92a3.08,3.08,0,0,1-.08-.3,2.78,2.78,0,0,1-.05-.31,2,2,0,0,1-.58.5,1.55,1.55,0,0,1-.77.19,1.57,1.57,0,0,1-1.13-.38,1.39,1.39,0,0,1-.39-1.05,1.24,1.24,0,0,1,.54-1.08,2.66,2.66,0,0,1,1.54-.38H45V9.71a.77.77,0,0,0-.22-.59.9.9,0,0,0-.64-.21,1,1,0,0,0-.61.17.55.55,0,0,0-.22.45H42.23a1.28,1.28,0,0,1,.54-1,2.21,2.21,0,0,1,1.42-.43,2.08,2.08,0,0,1,1.36.42,1.48,1.48,0,0,1,.51,1.22v2.11a4,4,0,0,0,0,.57,2.74,2.74,0,0,0,.13.53Zm-1.26-.77a1.36,1.36,0,0,0,.66-.16,1.15,1.15,0,0,0,.44-.4v-.81h-.79a1.08,1.08,0,0,0-.74.23.7.7,0,0,0-.26.55.55.55,0,0,0,.17.43A.74.74,0,0,0,43.88,12.15Z"/><path class="cls-2" d="M47,10.61a3.12,3.12,0,0,1,.49-1.84,1.6,1.6,0,0,1,1.39-.69,1.5,1.5,0,0,1,.75.18,1.61,1.61,0,0,1,.54.51l.09-.6h.91v4.65a2,2,0,0,1-.56,1.48,2.23,2.23,0,0,1-1.6.53,3.37,3.37,0,0,1-1.52-.38l.23-.77a3.27,3.27,0,0,0,.61.23,2.5,2.5,0,0,0,.65.08,1.09,1.09,0,0,0,.86-.31,1.26,1.26,0,0,0,.28-.87v-.36h0a1.43,1.43,0,0,1-.52.42,1.63,1.63,0,0,1-.7.14,1.65,1.65,0,0,1-1.38-.63A2.66,2.66,0,0,1,47,10.7ZM48,10.7a1.89,1.89,0,0,0,.25,1.05.91.91,0,0,0,.82.38A1.11,1.11,0,0,0,49.7,12a1,1,0,0,0,.38-.41V9.51a1.11,1.11,0,0,0-.38-.41A1.07,1.07,0,0,0,49.13,9a.88.88,0,0,0-.82.45,2.42,2.42,0,0,0-.26,1.2Z"/><path class="cls-2" d="M54.68,9.14l-.5,0a1,1,0,0,0-.52.13.84.84,0,0,0-.32.37v3.3H52.27V8.17h1l.07.67h0a1.51,1.51,0,0,1,.46-.56,1.08,1.08,0,0,1,.65-.2l.21,0,.17,0Z"/><path class="cls-2" d="M58.24,12.92a3.08,3.08,0,0,1-.08-.3,2.78,2.78,0,0,1-.05-.31,2,2,0,0,1-.58.5,1.55,1.55,0,0,1-.77.19,1.57,1.57,0,0,1-1.13-.38,1.39,1.39,0,0,1-.39-1.05,1.24,1.24,0,0,1,.54-1.08,2.66,2.66,0,0,1,1.54-.38h.78V9.71a.77.77,0,0,0-.22-.59.9.9,0,0,0-.64-.21,1,1,0,0,0-.61.17.55.55,0,0,0-.22.45H55.34a1.28,1.28,0,0,1,.54-1,2.21,2.21,0,0,1,1.42-.43,2.08,2.08,0,0,1,1.36.42,1.48,1.48,0,0,1,.51,1.22v2.11a4,4,0,0,0,0,.57,2.74,2.74,0,0,0,.13.53ZM57,12.15a1.36,1.36,0,0,0,.66-.16,1.15,1.15,0,0,0,.44-.4v-.81h-.79a1.08,1.08,0,0,0-.74.23.7.7,0,0,0-.26.55.55.55,0,0,0,.17.43A.74.74,0,0,0,57,12.15Z"/><path class="cls-2" d="M61.25,8.17l.06.6h0a1.55,1.55,0,0,1,.57-.51,1.75,1.75,0,0,1,.81-.18,1.47,1.47,0,0,1,.8.21,1.28,1.28,0,0,1,.5.64,1.69,1.69,0,0,1,.58-.62,1.56,1.56,0,0,1,.85-.22,1.41,1.41,0,0,1,1.14.48,2.29,2.29,0,0,1,.41,1.5v2.86H65.91V10.05a1.34,1.34,0,0,0-.21-.86A.79.79,0,0,0,65.07,9a.92.92,0,0,0-.58.18,1,1,0,0,0-.34.5s0,.08,0,.11,0,.06,0,.09v3.08H63.09V10.05a1.33,1.33,0,0,0-.21-.85A.77.77,0,0,0,62.25,9a1.14,1.14,0,0,0-.55.12.9.9,0,0,0-.36.36v3.49H60.28V8.17Z"/></svg>